<svg width="64" height="64" viewBox="0 0 64 64" fill="none" xmlns="http://www.w3.org/2000/svg">
<rect x="1" y="1" width="62" height="62" rx="3" stroke="#F4F3F1" stroke-opacity="0.94" stroke-width="2"/>
<path d="M17.4966 26.8221V20.1521C16.3173 18.2187 15.2443 16.3337 14.2776 14.4971C13.3303 12.6604 12.499 10.7851 11.7836 8.87105H14.4516C15.0123 10.4951 15.6503 12.0514 16.3656 13.5401C17.1003 15.0094 17.8833 16.5271 18.7146 18.0931C19.604 16.4497 20.387 14.8934 21.0636 13.4241C21.7596 11.9354 22.388 10.4177 22.9486 8.87105H25.5586C24.824 10.7657 23.983 12.6121 23.0356 14.4101C22.0883 16.2081 21.0346 18.1027 19.8746 20.0941V26.8221H17.4966ZM43.3066 26.8221V20.1521C42.1273 18.2187 41.0543 16.3337 40.0876 14.4971C39.1403 12.6604 38.309 10.7851 37.5936 8.87105H40.2616C40.8223 10.4951 41.4603 12.0514 42.1756 13.5401C42.9103 15.0094 43.6933 16.5271 44.5246 18.0931C45.414 16.4497 46.197 14.8934 46.8736 13.4241C47.5696 11.9354 48.198 10.4177 48.7586 8.87105H51.3686C50.634 10.7657 49.793 12.6121 48.8456 14.4101C47.8983 16.2081 46.8446 18.1027 45.6846 20.0941V26.8221H43.3066ZM22.2236 45.9771H24.6016V54.3871C24.2343 54.5224 23.6446 54.6867 22.8326 54.8801C22.0206 55.0927 21.0636 55.1991 19.9616 55.1991C18.879 55.1991 17.893 54.9961 17.0036 54.5901C16.1143 54.1647 15.3506 53.5557 14.7126 52.7631C14.094 51.9704 13.6106 50.9941 13.2626 49.8341C12.9146 48.6547 12.7406 47.3207 12.7406 45.8321C12.7406 44.3241 12.934 42.9901 13.3206 41.8301C13.7073 40.6701 14.2293 39.6937 14.8866 38.9011C15.5633 38.1084 16.3463 37.5091 17.2356 37.1031C18.125 36.6777 19.082 36.4651 20.1066 36.4651C20.764 36.4651 21.344 36.5134 21.8466 36.6101C22.3493 36.7067 22.7746 36.8227 23.1226 36.9581C23.49 37.0934 23.7896 37.2384 24.0216 37.3931C24.2536 37.5284 24.4276 37.6347 24.5436 37.7121L23.7606 39.7131C23.316 39.3651 22.7843 39.0847 22.1656 38.8721C21.5663 38.6401 20.9283 38.5241 20.2516 38.5241C19.517 38.5241 18.8306 38.6981 18.1926 39.0461C17.574 39.3941 17.0423 39.8871 16.5976 40.5251C16.153 41.1631 15.805 41.9364 15.5536 42.8451C15.3023 43.7344 15.1766 44.7301 15.1766 45.8321C15.1766 46.9147 15.283 47.9007 15.4956 48.7901C15.7276 49.6794 16.0563 50.4431 16.4816 51.0811C16.907 51.7191 17.429 52.2217 18.0476 52.5891C18.6856 52.9371 19.4106 53.1111 20.2226 53.1111C20.7833 53.1111 21.2183 53.0724 21.5276 52.9951C21.837 52.9177 22.069 52.8404 22.2236 52.7631V45.9771ZM44.0026 53.1401C45.2206 53.1401 46.1486 52.9081 46.7866 52.4441C47.4246 51.9801 47.7436 51.2841 47.7436 50.3561C47.7436 49.7954 47.6276 49.3217 47.3956 48.9351C47.1636 48.5291 46.8543 48.1811 46.4676 47.8911C46.081 47.5817 45.646 47.3207 45.1626 47.1081C44.6793 46.8761 44.1863 46.6634 43.6836 46.4701C43.1036 46.2381 42.543 45.9771 42.0016 45.6871C41.4796 45.3971 41.006 45.0587 40.5806 44.6721C40.1746 44.2854 39.846 43.8311 39.5946 43.3091C39.3626 42.7871 39.2466 42.1684 39.2466 41.4531C39.2466 39.8871 39.7396 38.6691 40.7256 37.7991C41.7116 36.9097 43.0843 36.4651 44.8436 36.4651C45.327 36.4651 45.8006 36.5037 46.2646 36.5811C46.748 36.6391 47.1926 36.7164 47.5986 36.8131C48.0046 36.9097 48.3623 37.0257 48.6716 37.1611C49.0003 37.2964 49.2613 37.4317 49.4546 37.5671L48.7006 39.5681C48.314 39.3361 47.7823 39.1041 47.1056 38.8721C46.429 38.6401 45.675 38.5241 44.8436 38.5241C43.9736 38.5241 43.2196 38.7464 42.5816 39.1911C41.9436 39.6164 41.6246 40.2641 41.6246 41.1341C41.6246 41.6367 41.7116 42.0621 41.8856 42.4101C42.079 42.7581 42.3303 43.0674 42.6396 43.3381C42.9683 43.5894 43.3453 43.8214 43.7706 44.0341C44.196 44.2467 44.66 44.4594 45.1626 44.6721C45.8973 44.9814 46.5643 45.2907 47.1636 45.6001C47.7823 45.9094 48.3043 46.2767 48.7296 46.7021C49.1743 47.1274 49.5126 47.6301 49.7446 48.2101C49.996 48.7901 50.1216 49.4957 50.1216 50.3271C50.1216 51.8931 49.59 53.1014 48.5266 53.9521C47.4826 54.7834 45.9746 55.1991 44.0026 55.1991C43.3646 55.1991 42.7653 55.1507 42.2046 55.0541C41.644 54.9767 41.1413 54.8704 40.6966 54.7351C40.2713 54.5997 39.8943 54.4644 39.5656 54.3291C39.237 54.1937 38.9856 54.0681 38.8116 53.9521L39.5366 51.9801C39.9233 52.1927 40.4936 52.4441 41.2476 52.7341C42.0016 53.0047 42.92 53.1401 44.0026 53.1401Z" fill="#F4F3F1" fill-opacity="0.94"/>
</svg>
